<?xml version="1.0" standalone="no"?>
<!DOCTYPE svg PUBLIC "-//W3C//DTD SVG 1.1//EN" "http://www.w3.org/Graphics/SVG/1.1/DTD/svg11.dtd" >
<svg xmlns="http://www.w3.org/2000/svg">
<defs>
  <font id="iconfont" horiz-adv-x="1126.125">
    <font-face font-family="iconfont"
      units-per-em="1001" ascent="1001"
      descent="0" />
    <missing-glyph horiz-adv-x="0" />
    <glyph glyph-name="angle-left"
      unicode="&#xE001;"
      horiz-adv-x="625.625" d="M80.940234375 544.684765625C56.5017578125 520.2462890625 56.5017578125 480.558203125 80.940234375 456.1197265625L393.752734375 143.3072265625C418.1912109375 118.86875 457.879296875 118.86875 482.3177734375 143.3072265625S506.75625 207.4337890625001 482.3177734375 231.8722656250001L213.6900390625 500.5L482.122265625 769.127734375C506.5607421875001 793.5662109375 506.5607421875001 833.254296875 482.122265625 857.6927734375S417.9957031250001 882.13125 393.5572265625001 857.6927734375L80.7447265625 544.8802734374999z" />
    <glyph glyph-name="angle-right"
      unicode="&#xE002;"
      horiz-adv-x="625.625" d="M544.6847656250001 544.684765625C569.1232421875001 520.2462890625 569.1232421875001 480.558203125 544.6847656250001 456.1197265625L231.8722656250001 143.3072265625C207.4337890625001 118.86875 167.7457031250001 118.86875 143.3072265625001 143.3072265625S118.8687500000001 207.4337890625001 143.3072265625001 231.8722656250001L411.9349609375 500.5L143.502734375 769.127734375C119.0642578125 793.5662109375 119.0642578125 833.254296875 143.502734375 857.6927734375S207.629296875 882.13125 232.0677734375 857.6927734375L544.8802734375 544.8802734374999z" />
    <glyph glyph-name="angles-left"
      unicode="&#xE003;"
      horiz-adv-x="1001" d="M80.940234375 544.684765625C56.5017578125 520.2462890625 56.5017578125 480.558203125 80.940234375 456.1197265625L393.752734375 143.3072265625C418.1912109375 118.86875 457.879296875 118.86875 482.3177734375 143.3072265625S506.75625 207.4337890625001 482.3177734375 231.8722656250001L213.6900390625 500.5L482.122265625 769.127734375C506.5607421875001 793.5662109375 506.5607421875001 833.254296875 482.122265625 857.6927734375S417.9957031250001 882.13125 393.5572265625001 857.6927734375L80.7447265625 544.8802734374999zM769.1277343749999 857.497265625L456.3152343749999 544.684765625C431.8767578125 520.2462890625 431.8767578125 480.558203125 456.3152343749999 456.1197265625L769.1277343749999 143.3072265625C793.5662109374999 118.86875 833.254296875 118.86875 857.6927734375 143.3072265625S882.13125 207.4337890625001 857.6927734375 231.8722656250001L589.0650390625 500.5L857.4972656250001 769.127734375C881.9357421875001 793.5662109375 881.9357421875001 833.254296875 857.4972656250001 857.6927734375S793.370703125 882.13125 768.9322265625 857.6927734375z" />
    <glyph glyph-name="angles-right"
      unicode="&#xE004;"
      horiz-adv-x="1001" d="M920.059765625 456.3152343749999C944.4982421875 480.7537109374999 944.4982421875 520.4417968749999 920.059765625 544.8802734374999L607.2472656250001 857.6927734374999C582.8087890625001 882.13125 543.120703125 882.13125 518.6822265625 857.6927734374999S494.24375 793.5662109375 518.6822265625 769.127734375L787.3099609375 500.5L518.8777343749999 231.8722656250001C494.4392578124999 207.4337890625001 494.4392578124999 167.745703125 518.8777343749999 143.3072265625S583.004296875 118.86875 607.4427734375 143.3072265625L920.2552734375 456.1197265625zM231.8722656250001 143.5027343749999L544.6847656250001 456.3152343749999C569.1232421875001 480.7537109374999 569.1232421875001 520.4417968749999 544.6847656250001 544.8802734374999L231.8722656250001 857.6927734374999C207.4337890625001 882.13125 167.7457031250001 882.13125 143.3072265625001 857.6927734374999S118.8687500000001 793.5662109375 143.3072265625001 769.127734375L411.9349609375 500.5L143.502734375 231.8722656250001C119.0642578125 207.4337890625001 119.0642578125 167.745703125 143.502734375 143.3072265625S207.629296875 118.86875 232.0677734375 143.3072265625z" />
    <glyph glyph-name="bars"
      unicode="&#xE005;"
      horiz-adv-x="875.875" d="M0 813.3125C0 847.9173828125 27.9576171875 875.875 62.5625 875.875L813.3125 875.875C847.9173828125 875.875 875.875 847.9173828125 875.875 813.3125S847.9173828125 750.75 813.3125 750.75L62.5625 750.75C27.9576171875 750.75 0 778.7076171875 0 813.3125zM0 500.5C0 535.1048828124999 27.9576171875 563.0625 62.5625 563.0625L813.3125 563.0625C847.9173828125 563.0625 875.875 535.1048828124999 875.875 500.5S847.9173828125 437.9375 813.3125 437.9375L62.5625 437.9375C27.9576171875 437.9375 0 465.8951171875 0 500.5zM875.875 187.6875C875.875 153.0826171875 847.9173828125 125.125 813.3125 125.125L62.5625 125.125C27.9576171875 125.125 0 153.0826171875 0 187.6875S27.9576171875 250.25 62.5625 250.25L813.3125 250.25C847.9173828125 250.25 875.875 222.2923828125 875.875 187.6875z" />
    <glyph glyph-name="check"
      unicode="&#xE006;"
      horiz-adv-x="875.875" d="M857.4972656250001 794.934765625C881.9357421875001 770.4962890625 881.9357421875001 730.8082031250001 857.4972656250001 706.3697265625001L356.9972656250001 205.8697265625C332.5587890625001 181.43125 292.8707031250001 181.43125 268.4322265625001 205.8697265625L18.1822265625 456.1197265625C-6.25625 480.558203125 -6.25625 520.2462890625001 18.1822265625 544.6847656250001S82.3087890625 569.1232421875001 106.747265625 544.6847656250001L312.8125 338.8150390625L769.1277343749999 794.934765625C793.5662109374999 819.3732421875 833.254296875 819.3732421875 857.6927734375 794.934765625z" />
    <glyph glyph-name="chevron-down"
      unicode="&#xE007;"
      horiz-adv-x="1001" d="M456.315234375 206.0652343749999C480.7537109375 181.6267578124999 520.441796875 181.6267578124999 544.8802734375 206.0652343749999L920.2552734375 581.4402343749999C944.69375 605.8787109374999 944.69375 645.5667968749999 920.2552734375 670.0052734374999S856.1287109374999 694.4437499999999 831.6902343749999 670.0052734374999L500.5 338.8150390625L169.309765625 669.809765625C144.8712890625 694.2482421875 105.183203125 694.2482421875 80.7447265625 669.809765625S56.30625 605.6832031250001 80.7447265625 581.2447265625001L456.1197265625 205.8697265625z" />
    <glyph glyph-name="chevron-left"
      unicode="&#xE008;"
      horiz-adv-x="625.625" d="M18.377734375 544.684765625C-6.0607421875 520.2462890625 -6.0607421875 480.558203125 18.377734375 456.1197265625L393.752734375 80.7447265625C418.1912109375 56.30625 457.879296875 56.30625 482.3177734375 80.7447265625S506.75625 144.8712890625001 482.3177734375 169.3097656250001L151.1275390625 500.5L482.122265625 831.690234375C506.5607421875001 856.1287109375 506.5607421875001 895.816796875 482.122265625 920.2552734375S417.9957031250001 944.69375 393.5572265625001 920.2552734375L18.1822265625 544.8802734374999z" />
    <glyph glyph-name="chevron-right"
      unicode="&#xE009;"
      horiz-adv-x="625.625" d="M607.2472656250001 544.684765625C631.6857421875001 520.2462890625 631.6857421875001 480.558203125 607.2472656250001 456.1197265625L231.8722656250001 80.7447265625C207.4337890625001 56.30625 167.7457031250001 56.30625 143.3072265625001 80.7447265625S118.8687500000001 144.8712890625001 143.3072265625001 169.3097656250001L474.4974609375 500.5L143.502734375 831.690234375C119.0642578125 856.1287109375 119.0642578125 895.816796875 143.502734375 920.2552734375S207.629296875 944.69375 232.0677734375 920.2552734375L607.4427734375 544.8802734374999z" />
    <glyph glyph-name="circle-check"
      unicode="&#xE00A;"
      horiz-adv-x="1001" d="M500.5 0A500.5 500.5 0 1 1 500.5 1001A500.5 500.5 0 1 1 500.5 0zM721.423828125 592.388671875L471.173828125 342.138671875C452.79609375 323.7609375000001 423.07890625 323.7609375000001 404.8966796875 342.138671875L279.7716796875 467.263671875C261.3939453125 485.6414062499999 261.3939453125 515.35859375 279.7716796875 533.5408203125S327.8666015625 551.9185546875001 346.048828125 533.5408203125L437.9375 441.6521484375L654.951171875 658.861328125C673.3289062499999 677.2390625 703.0460937500001 677.2390625 721.2283203124999 658.861328125S739.6060546874999 610.76640625 721.2283203124999 592.5841796875z" />
    <glyph glyph-name="circle-exclamation"
      unicode="&#xE00B;"
      horiz-adv-x="1001" d="M500.5 0A500.5 500.5 0 1 1 500.5 1001A500.5 500.5 0 1 1 500.5 0zM500.5 750.75C526.5025390625 750.75 547.421875 729.8306640625001 547.421875 703.828125V484.859375C547.421875 458.8568359375 526.5025390625 437.9375 500.5 437.9375S453.578125 458.8568359375 453.578125 484.859375V703.828125C453.578125 729.8306640625001 474.4974609375 750.75 500.5 750.75zM437.9375 312.8125A62.5625 62.5625 0 1 0 563.0625 312.8125A62.5625 62.5625 0 1 0 437.9375 312.8125z" />
    <glyph glyph-name="circle-question"
      unicode="&#xE00C;"
      horiz-adv-x="1001" d="M500.5 0A500.5 500.5 0 1 1 500.5 1001A500.5 500.5 0 1 1 500.5 0zM331.9722656250001 677.8255859374999C347.4173828125 721.423828125 388.8650390625 750.75 435.2003906250001 750.75H549.1814453125C617.413671875 750.75 672.5468750000001 695.4212890624999 672.5468750000001 627.3845703125C672.5468750000001 583.1998046875001 648.8904296875 542.338671875 610.5708984375001 520.2462890625001L547.421875 484.0773437500001C547.030859375 458.6613281250001 526.1115234375001 437.9375 500.5 437.9375C474.4974609375 437.9375 453.578125 458.8568359375 453.578125 484.859375V511.2529296875C453.578125 528.0666015625 462.571484375 543.51171875 477.2345703125 551.9185546875001L563.8445312499999 601.5775390625C573.0333984375 606.85625 578.703125 616.631640625 578.703125 627.1890625000001C578.703125 643.61171875 565.40859375 656.7107421875 549.1814453124999 656.7107421875H435.200390625C428.553125 656.7107421875 422.687890625 652.6050781250001 420.5373046875 646.348828125L419.7552734375 644.002734375C411.1529296875 619.5642578125 384.1728515625 606.85625 359.9298828125 615.4585937500001S322.7833984375 651.041015625 331.3857421875 675.283984375L332.1677734375 677.630078125zM437.9375 312.8125A62.5625 62.5625 0 1 0 563.0625 312.8125A62.5625 62.5625 0 1 0 437.9375 312.8125z" />
    <glyph glyph-name="envelope"
      unicode="&#xE00D;"
      horiz-adv-x="1001" d="M93.84375 875.875C42.0341796875 875.875 0 833.8408203125 0 782.03125C0 752.5095703125 13.8810546875 724.7474609374999 37.5375 706.95625L462.9625 387.8875C485.250390625 371.2693359375 515.749609375 371.2693359375 538.0375 387.8875L963.4625 706.95625C987.1189453125 724.7474609374999 1001 752.5095703125 1001 782.03125C1001 833.8408203125 958.9658203125 875.875 907.15625 875.875H93.84375zM0 656.90625V250.25C0 181.2357421875 56.1107421875 125.125 125.125 125.125H875.875C944.8892578125 125.125 1001 181.2357421875 1001 250.25V656.90625L575.5749999999999 337.8375C530.99921875 304.4056640625 470.0007812499999 304.4056640625 425.425 337.8375L0 656.90625z" />
    <glyph glyph-name="facebook-f"
      unicode="&#xE00E;"
      horiz-adv-x="969.71875" d="M969.71875 500.5C969.71875 232.654296875 752.705078125 15.640625 484.859375 15.640625C434.809375 15.640625 386.7144531250001 23.2654296874999 341.356640625 37.3419921875001C361.1029296875 69.6007812500001 390.624609375 122.3878906250001 401.573046875 164.4220703125001C407.43828125 187.1009765625001 431.6812500000001 279.7716796875001 431.6812500000001 279.7716796875001C447.5173828125 249.6634765625002 493.6572265625 224.0519531250001 542.7296875000001 224.0519531250001C688.96953125 224.0519531250001 794.3482421875 358.5613281250001 794.3482421875 525.7205078125C794.3482421875 685.8414062500001 663.5535156249999 805.6876953125001 495.416796875 805.6876953125001C286.2234375 805.6876953125001 174.9794921875 665.3130859375001 174.9794921875 512.23046875C174.9794921875 441.0656250000001 212.9080078125 352.5005859375 273.3199218750001 324.3474609375001C282.5087890625 320.0462890625002 287.396484375 322.0013671875002 289.5470703125001 330.7992187500002C291.1111328125001 337.4464843750001 299.3224609375001 370.4873046875001 303.0371093750001 385.7369140625001C304.2101562500001 390.6246093750001 303.6236328125001 394.9257812500001 299.7134765625001 399.6179687500002C279.9671875000001 424.0564453125002 263.9355468750001 468.6322265625003 263.9355468750001 510.2753906250002C263.9355468750001 617.2181640625001 344.8757812500001 720.6417968750002 482.9042968750001 720.6417968750002C601.9685546875 720.6417968750002 685.4503906250001 639.5060546875002 685.4503906250001 523.3744140625001C685.4503906250001 392.1886718750002 619.1732421875001 301.2775390625002 532.9542968750001 301.2775390625002C485.4458984375 301.2775390625002 449.6679687500001 340.5746093750003 461.2029296875 388.8650390625002C474.8884765625 446.5398437500002 501.28203125 508.7113281250002 501.28203125 550.3544921875002C501.28203125 587.5009765625002 481.3402343750001 618.5867187500002 439.8925781250001 618.5867187500002C391.2111328125001 618.5867187500002 352.1095703125001 568.3412109375001 352.1095703125001 500.8910156250002C352.1095703125001 457.8792968750003 366.5771484375001 428.9441406250002 366.5771484375001 428.9441406250002S318.6777343750001 226.0070312500002 309.8798828125001 188.0785156250003C300.1044921875001 146.2398437500002 304.0146484375001 87.1964843750002 308.1203125000001 48.8769531250002C127.862109375 119.4552734375001 0 295.0212890625 0 500.5C0 768.345703125 217.013671875 985.359375 484.859375 985.359375S969.71875 768.345703125 969.71875 500.5z" />
    <glyph glyph-name="file-image"
      unicode="&#xE00F;"
      horiz-adv-x="750.75" d="M125.125 93.84375C107.9203125 93.84375 93.84375 107.9203125 93.84375 125.125V875.875C93.84375 893.0796875 107.9203125 907.15625 125.125 907.15625H437.9375V750.75C437.9375 716.1451171875001 465.8951171875 688.1875 500.5 688.1875H656.90625V125.125C656.90625 107.9203125 642.8296875 93.84375 625.625 93.84375H125.125zM125.125 1001C56.1107421875 1001 0 944.8892578125 0 875.875V125.125C0 56.1107421875 56.1107421875 0 125.125 0H625.625C694.6392578125 0 750.75 56.1107421875 750.75 125.125V698.9404296875C750.75 732.1767578125 737.6509765625 764.04453125 714.1900390625 787.50546875L537.0599609375 964.4400390625C513.5990234375 987.9009765625 481.9267578125 1001 448.6904296875 1001H125.125zM312.8125 500.5A62.5625 62.5625 0 1 1 187.6875 500.5A62.5625 62.5625 0 1 1 312.8125 500.5zM448.10390625 408.8068359375001C442.238671875 417.2136718750001 432.6587890625 422.296875 422.296875 422.296875S402.3550781250001 417.213671875 396.4898437500001 408.8068359375001L315.7451171875 292.0886718750001L292.4796875 329.4306640625001C286.8099609375 338.6195312500002 276.6435546875 344.0937500000001 265.890625 344.0937500000001S245.166796875 338.6195312500002 239.3015625 329.4306640625001L161.0984375 204.3056640625001C155.0376953125 194.7257812500002 154.8421875 182.6042968750001 160.31640625 172.6333984375001S176.348046875 156.6017578125002 187.6875 156.6017578125002H281.53125H344.09375H422.296875H563.0625C574.79296875 156.6017578125002 585.3503906249999 163.0535156250002 590.824609375 173.4154296875003S595.516796875 196.0943359375002 588.86953125 205.6742187500003L448.10390625 409.0023437500003z" />
    <glyph glyph-name="file-pdf"
      unicode="&#xE010;"
      horiz-adv-x="1001" d="M125.125 93.84375L218.96875 93.84375L218.96875 0L125.125 0C56.1107421875 0 0 56.1107421875 0 125.125L0 875.875C0 944.8892578125 56.1107421875 1001 125.125 1001L448.6904296875 1001C481.9267578125 1001 513.79453125 987.9009765625 537.25546875 964.4400390625L714.1900390625 787.50546875C737.6509765625 764.04453125 750.75 732.1767578125 750.75 698.9404296875L750.75 406.65625L656.90625 406.65625L656.90625 688.1875L500.5 688.1875C465.8951171875 688.1875 437.9375 716.1451171875001 437.9375 750.75L437.9375 907.15625L125.125 907.15625C107.9203125 907.15625 93.84375 893.0796875 93.84375 875.875L93.84375 125.125C93.84375 107.9203125 107.9203125 93.84375 125.125 93.84375zM344.09375 312.8125L406.65625 312.8125C467.0681640625 312.8125 516.140625 263.7400390625 516.140625 203.328125S467.0681640625 93.84375 406.65625 93.84375L375.375 93.84375L375.375 31.28125C375.375 14.0765625 361.2984375000001 0 344.09375 0S312.8125 14.0765625 312.8125 31.28125L312.8125 125.125L312.8125 281.53125C312.8125 298.7359375 326.8890625 312.8125 344.09375 312.8125zM406.65625 156.40625C432.6587890625001 156.40625 453.578125 177.3255859375 453.578125 203.328125S432.6587890625001 250.25 406.65625 250.25L375.375 250.25L375.375 156.40625L406.65625 156.40625zM594.34375 312.8125L656.90625 312.8125C708.7158203125 312.8125 750.75 270.7783203125 750.75 218.96875L750.75 93.84375C750.75 42.0341796875 708.7158203125 0 656.90625 0L594.34375 0C577.1390625 0 563.0625 14.0765625 563.0625 31.28125L563.0625 281.53125C563.0625 298.7359375 577.1390625 312.8125 594.34375 312.8125zM656.90625 62.5625C674.1109375 62.5625 688.1875 76.6390625 688.1875 93.84375L688.1875 218.96875C688.1875 236.1734375 674.1109375 250.25 656.90625 250.25L625.625 250.25L625.625 62.5625L656.90625 62.5625zM813.3125 281.53125C813.3125 298.7359375 827.3890625 312.8125 844.59375 312.8125L938.4375 312.8125C955.6421875 312.8125 969.71875 298.7359375 969.71875 281.53125S955.6421875 250.25 938.4375 250.25L875.875 250.25L875.875 187.6875L938.4375 187.6875C955.6421875 187.6875 969.71875 173.6109375 969.71875 156.40625S955.6421875 125.125 938.4375 125.125L875.875 125.125L875.875 31.28125C875.875 14.0765625 861.7984375 0 844.59375 0S813.3125 14.0765625 813.3125 31.28125L813.3125 156.40625L813.3125 281.53125z" />
    <glyph glyph-name="file"
      unicode="&#xE011;"
      horiz-adv-x="750.75" d="M625.625 93.84375C642.8296875 93.84375 656.90625 107.9203125 656.90625 125.125V688.1875H500.5C465.8951171875 688.1875 437.9375 716.1451171875001 437.9375 750.75V907.15625H125.125C107.9203125 907.15625 93.84375 893.0796875 93.84375 875.875V125.125C93.84375 107.9203125 107.9203125 93.84375 125.125 93.84375H625.625zM0 875.875C0 944.8892578125 56.1107421875 1001 125.125 1001H448.6904296875C481.9267578125 1001 513.79453125 987.9009765625 537.25546875 964.4400390625L714.1900390625 787.50546875C737.6509765625 764.04453125 750.75 732.1767578125 750.75 698.9404296875V125.125C750.75 56.1107421875 694.6392578125 0 625.625 0H125.125C56.1107421875 0 0 56.1107421875 0 125.125V875.875z" />
    <glyph glyph-name="info-circle"
      unicode="&#xE012;"
      horiz-adv-x="1001" d="M500.5 0A500.5 500.5 0 1 1 500.5 1001A500.5 500.5 0 1 1 500.5 0zM422.296875 344.09375H469.21875V469.21875H422.296875C396.2943359375 469.21875 375.375 490.1380859375 375.375 516.140625S396.2943359375 563.0625 422.296875 563.0625H516.140625C542.1431640625 563.0625 563.0625 542.1431640625001 563.0625 516.140625V344.09375H578.703125C604.7056640625 344.09375 625.625 323.1744140625 625.625 297.171875S604.7056640625 250.25 578.703125 250.25H422.296875C396.2943359375 250.25 375.375 271.1693359375 375.375 297.171875S396.2943359375 344.09375 422.296875 344.09375zM500.5 750.75A62.5625 62.5625 0 1 0 500.5 625.625A62.5625 62.5625 0 1 0 500.5 750.75z" />
    <glyph glyph-name="instagram"
      unicode="&#xE013;"
      horiz-adv-x="875.875" d="M438.1330078125 725.333984375C313.7900390625 725.333984375 213.49453125 625.0384765624999 213.49453125 500.6955078125S313.7900390625 276.05703125 438.1330078125 276.05703125S662.771484375 376.3525390625 662.771484375 500.6955078125S562.4759765625 725.333984375 438.1330078125 725.333984375zM438.1330078125 354.651171875C357.779296875 354.651171875 292.088671875 420.1462890625 292.088671875 500.6955078125S357.5837890625 646.7398437499999 438.1330078125 646.7398437499999S584.1773437499999 581.2447265624999 584.1773437499999 500.6955078125S518.4867187499999 354.651171875 438.1330078125 354.651171875zM724.3564453125 734.5228515624999C724.3564453125 705.3921875 700.8955078125 682.1267578124999 671.9603515625 682.1267578124999C642.8296875 682.1267578124999 619.5642578124999 705.5876953124999 619.5642578124999 734.5228515624999S643.0251953124999 786.9189453125 671.9603515625 786.9189453125S724.3564453125 763.4580078125 724.3564453125 734.5228515624999zM873.1378906250001 681.3447265625C869.8142578125 751.53203125 853.7826171875001 813.703515625 802.3640625 864.9265625C751.1410156250001 916.149609375 688.96953125 932.18125 618.7822265625 935.700390625C546.4443359375 939.8060546875 329.626171875 939.8060546875 257.28828125 935.700390625C187.296484375 932.3767578125 125.125 916.3451171875 73.7064453125 865.1220703125S6.4517578125 751.7275390625 2.9326171875 681.540234375C-1.173046875 609.20234375 -1.173046875 392.3841796875 2.9326171875 320.0462890625C6.25625 249.858984375 22.287890625 187.6875 73.7064453125 136.4644531249999S187.1009765625 69.2097656249999 257.28828125 65.690625C329.626171875 61.5849609374999 546.4443359375 61.5849609374999 618.7822265625 65.690625C688.9695312499999 69.0142578124999 751.141015625 85.0458984374999 802.3640624999999 136.4644531249999C853.587109375 187.6874999999999 869.6187499999999 249.8589843749999 873.137890625 320.0462890624999C877.2435546875 392.3841796874999 877.2435546875 609.0068359374999 873.137890625 681.3447265624999zM779.68515625 242.4296875C764.435546875 204.1101562499999 734.9138671875 174.5884765625 696.398828125 159.1433593749999C638.7240234375 136.2689453125 501.8685546875 141.5476562499999 438.1330078125 141.5476562499999S237.346484375 136.4644531249999 179.8671875 159.1433593749999C141.54765625 174.39296875 112.0259765625 203.9146484374999 96.580859375 242.4296875C73.7064453125 300.1044921875 78.98515625 436.9599609375 78.98515625 500.6955078125S73.901953125 701.4820312500001 96.580859375 758.9613281249999C111.83046875 797.280859375 141.3521484375 826.8025390625 179.8671875 842.24765625C237.5419921875 865.1220703125 374.3974609375 859.843359375 438.1330078125 859.843359375S638.91953125 864.9265624999999 696.398828125 842.24765625C734.718359375 826.998046875 764.2400390624999 797.4763671874999 779.68515625 758.9613281249999C802.5595703125 701.2865234374999 797.280859375 564.4310546874999 797.280859375 500.6955078125S802.5595703125 299.908984375 779.68515625 242.4296875z" />
    <glyph glyph-name="linkedin"
      unicode="&#xE014;"
      horiz-adv-x="875.875" d="M813.3125 938.4375H62.3669921875C27.9576171875 938.4375 0 910.0888671875 0 875.2884765625V125.7115234375C0 90.9111328125 27.9576171875 62.5625 62.3669921875 62.5625H813.3125C847.7218750000001 62.5625 875.875 90.9111328125 875.875 125.7115234375V875.2884765625C875.875 910.0888671875 847.7218750000001 938.4375 813.3125 938.4375zM264.717578125 187.6875H134.900390625V605.6832031250001H264.9130859375V187.6875zM199.808984375 662.771484375C158.1658203125 662.771484375 124.5384765625 696.5943359375001 124.5384765625 738.0419921875S158.1658203125 813.3125 199.808984375 813.3125C241.256640625 813.3125 275.0794921875 779.4896484375 275.0794921875 738.0419921875C275.0794921875 696.3988281249999 241.4521484375 662.771484375 199.808984375 662.771484375zM751.3365234375 187.6875H621.5193359374999V391.015625C621.5193359374999 439.5015625 620.5417968749999 501.8685546875 554.0691406249999 501.8685546875C486.4234375 501.8685546875 476.0615234374999 449.0814453125 476.0615234374999 394.534765625V187.6875H346.2443359375V605.6832031250001H470.7828124999999V548.5949218750001H472.5423828124999C489.942578125 581.440234375 532.3677734374999 616.0451171875001 595.516796875 616.0451171875001C726.8980468749999 616.0451171875001 751.3365234374999 529.4351562500001 751.3365234374999 416.8226562500002V187.6875z" />
    <glyph glyph-name="lock"
      unicode="&#xE015;"
      horiz-adv-x="875.875" d="M281.53125 719.46875V625.625H594.34375V719.46875C594.34375 805.883203125 524.351953125 875.875 437.9375 875.875S281.53125 805.883203125 281.53125 719.46875zM156.40625 625.625V719.46875C156.40625 874.8974609375 282.5087890625 1001 437.9375 1001S719.46875 874.8974609375 719.46875 719.46875V625.625H750.75C819.7642578125 625.625 875.875 569.5142578125001 875.875 500.5V125.125C875.875 56.1107421875 819.7642578125 0 750.75 0H125.125C56.1107421875 0 0 56.1107421875 0 125.125V500.5C0 569.5142578125001 56.1107421875 625.625 125.125 625.625H156.40625z" />
    <glyph glyph-name="long-arrow-right"
      unicode="&#xE016;"
      horiz-adv-x="1001" d="M982.622265625 456.3152343749999C1007.0607421875 480.7537109374999 1007.0607421875 520.4417968749999 982.622265625 544.8802734374999L732.3722656250001 795.1302734374999C707.9337890625001 819.5687499999999 668.245703125 819.5687499999999 643.8072265625 795.1302734374999S619.36875 731.0037109374999 643.8072265625 706.5652343749999L787.3099609375 563.0625L62.5625 563.0625C27.9576171875 563.0625 0 535.1048828124999 0 500.5S27.9576171875 437.9375 62.5625 437.9375L787.3099609375 437.9375L643.8072265624999 294.4347656250001C619.3687499999999 269.9962890625001 619.3687499999999 230.308203125 643.8072265624999 205.8697265625S707.9337890625 181.43125 732.372265625 205.8697265625L982.622265625 456.1197265625z" />
    <glyph glyph-name="move"
      unicode="&#xE017;"
      horiz-adv-x="1001" d="M544.6847656250001 982.622265625C520.2462890625001 1007.0607421875 480.558203125 1007.0607421875 456.1197265625 982.622265625L330.9947265625001 857.497265625C313.0080078125001 839.510546875 307.729296875 812.7259765624999 317.5046875 789.2650390624999S349.958984375 750.5544921874999 375.375 750.5544921874999H437.9375V562.8669921874999H250.25V625.625C250.25 650.8455078125 235.000390625 673.719921875 211.539453125 683.4953125S161.2939453125 687.796484375 143.3072265625 670.0052734374999L18.1822265625 544.8802734374999C-6.25625 520.4417968749999 -6.25625 480.7537109374999 18.1822265625 456.3152343749999L143.3072265625 331.190234375C161.2939453125 313.203515625 188.078515625 307.9248046875 211.539453125 317.7001953125S250.2500000000001 350.1544921875001 250.2500000000001 375.5705078125001V437.9375H437.9375000000001V250.25H375.375C350.1544921875 250.25 327.280078125 235.000390625 317.5046875 211.539453125S313.203515625 161.2939453125 330.9947265625001 143.3072265625L456.1197265625 18.1822265625C480.558203125 -6.2562500000001 520.2462890625001 -6.2562500000001 544.6847656250001 18.1822265625L669.8097656250001 143.3072265625C687.796484375 161.2939453125 693.0751953125 188.078515625 683.2998046875 211.539453125S650.8455078124999 250.25 625.4294921874999 250.25H563.0625V437.9375H750.75V375.375C750.75 350.1544921875001 765.999609375 327.280078125 789.460546875 317.5046875S839.7060546875 313.203515625 857.6927734375 330.9947265624999L982.8177734375 456.1197265624999C1007.2562500000003 480.5582031249999 1007.2562500000003 520.2462890625 982.8177734375 544.684765625L857.6927734375 669.809765625C839.7060546875 687.7964843749999 812.921484375 693.0751953125 789.460546875 683.2998046875S750.75 650.8455078124999 750.75 625.4294921874999V562.8669921874999H563.0625V750.75H625.625C650.8455078124999 750.75 673.7199218750001 765.999609375 683.4953125000001 789.460546875S687.796484375 839.7060546875 670.0052734375001 857.6927734374999L544.8802734375001 982.8177734375z" />
    <glyph glyph-name="pinterest"
      unicode="&#xE018;"
      horiz-adv-x="969.71875" d="M969.71875 500.5C969.71875 232.654296875 752.705078125 15.640625 484.859375 15.640625C434.809375 15.640625 386.7144531250001 23.2654296874999 341.356640625 37.3419921875001C361.1029296875 69.6007812500001 390.624609375 122.3878906250001 401.573046875 164.4220703125001C407.43828125 187.1009765625001 431.6812500000001 279.7716796875001 431.6812500000001 279.7716796875001C447.5173828125 249.6634765625002 493.6572265625 224.0519531250001 542.7296875000001 224.0519531250001C688.96953125 224.0519531250001 794.3482421875 358.5613281250001 794.3482421875 525.7205078125C794.3482421875 685.8414062500001 663.5535156249999 805.6876953125001 495.416796875 805.6876953125001C286.2234375 805.6876953125001 174.9794921875 665.3130859375001 174.9794921875 512.23046875C174.9794921875 441.0656250000001 212.9080078125 352.5005859375 273.3199218750001 324.3474609375001C282.5087890625 320.0462890625002 287.396484375 322.0013671875002 289.5470703125001 330.7992187500002C291.1111328125001 337.4464843750001 299.3224609375001 370.4873046875001 303.0371093750001 385.7369140625001C304.2101562500001 390.6246093750001 303.6236328125001 394.9257812500001 299.7134765625001 399.6179687500002C279.9671875000001 424.0564453125002 263.9355468750001 468.6322265625003 263.9355468750001 510.2753906250002C263.9355468750001 617.2181640625001 344.8757812500001 720.6417968750002 482.9042968750001 720.6417968750002C601.9685546875 720.6417968750002 685.4503906250001 639.5060546875002 685.4503906250001 523.3744140625001C685.4503906250001 392.1886718750002 619.1732421875001 301.2775390625002 532.9542968750001 301.2775390625002C485.4458984375 301.2775390625002 449.6679687500001 340.5746093750003 461.2029296875 388.8650390625002C474.8884765625 446.5398437500002 501.28203125 508.7113281250002 501.28203125 550.3544921875002C501.28203125 587.5009765625002 481.3402343750001 618.5867187500002 439.8925781250001 618.5867187500002C391.2111328125001 618.5867187500002 352.1095703125001 568.3412109375001 352.1095703125001 500.8910156250002C352.1095703125001 457.8792968750003 366.5771484375001 428.9441406250002 366.5771484375001 428.9441406250002S318.6777343750001 226.0070312500002 309.8798828125001 188.0785156250003C300.1044921875001 146.2398437500002 304.0146484375001 87.1964843750002 308.1203125000001 48.8769531250002C127.862109375 119.4552734375001 0 295.0212890625 0 500.5C0 768.345703125 217.013671875 985.359375 484.859375 985.359375S969.71875 768.345703125 969.71875 500.5z" />
    <glyph glyph-name="print"
      unicode="&#xE019;"
      horiz-adv-x="1001" d="M250.25 1001C181.2357421875 1001 125.125 944.8892578125 125.125 875.875V688.1875H250.25V875.875H693.4662109375L750.75 818.5912109375V688.1875H875.875V818.5912109375C875.875 851.8275390625 862.7759765625 883.6953125 839.3150390625 907.15625L782.03125 964.4400390625C758.5703125 987.9009765625 726.7025390625 1001 693.4662109375 1001H250.25zM750.75 312.8125V250.25V125.125H250.25V250.25V281.53125V312.8125H750.75zM875.875 250.25H938.4375C973.0423828125 250.25 1001 278.2076171875 1001 312.8125V500.5C1001 569.5142578125001 944.8892578125 625.625 875.875 625.625H125.125C56.1107421875 625.625 0 569.5142578125001 0 500.5V312.8125C0 278.2076171875 27.9576171875 250.25 62.5625 250.25H125.125V125.125C125.125 56.1107421875 181.2357421875 0 250.25 0H750.75C819.7642578125 0 875.875 56.1107421875 875.875 125.125V250.25zM844.59375 516.140625A46.921875 46.921875 0 1 0 844.59375 422.296875A46.921875 46.921875 0 1 0 844.59375 516.140625z" />
    <glyph glyph-name="quote-left"
      unicode="&#xE01A;"
      horiz-adv-x="875.875" d="M0 578.703125C0 708.3248046875001 104.9876953125 813.3125 234.609375 813.3125H250.25C284.8548828125 813.3125 312.8125 785.3548828125 312.8125 750.75S284.8548828125 688.1875 250.25 688.1875H234.609375C174.1974609375 688.1875 125.125 639.1150390625 125.125 578.703125V563.0625H250.25C319.2642578125001 563.0625 375.375 506.9517578125 375.375 437.9375V312.8125C375.375 243.7982421875 319.2642578125001 187.6875 250.25 187.6875H125.125C56.1107421875 187.6875 0 243.7982421875 0 312.8125V375.375V437.9375V578.703125zM500.5 578.703125C500.5 708.3248046875001 605.4876953125 813.3125 735.109375 813.3125H750.75C785.3548828125 813.3125 813.3125 785.3548828125 813.3125 750.75S785.3548828125 688.1875 750.75 688.1875H735.109375C674.6974609375001 688.1875 625.625 639.1150390625 625.625 578.703125V563.0625H750.75C819.7642578125 563.0625 875.875 506.9517578125 875.875 437.9375V312.8125C875.875 243.7982421875 819.7642578125 187.6875 750.75 187.6875H625.625C556.6107421875 187.6875 500.5 243.7982421875 500.5 312.8125V375.375V437.9375V578.703125z" />
    <glyph glyph-name="search"
      unicode="&#xE01B;"
      horiz-adv-x="1001" d="M813.3125 594.34375C813.3125 504.6056640625 784.1818359375001 421.7103515625 735.109375 354.4556640625L982.622265625 106.7472656250001C1007.0607421875 82.3087890625001 1007.0607421875 42.620703125 982.622265625 18.1822265625S918.495703125 -6.2562500000001 894.0572265625 18.1822265625L646.5443359375 265.890625C579.2896484375 216.62265625 496.3943359374999 187.6875 406.65625 187.6875C182.0177734375 187.6875 0 369.7052734375001 0 594.34375S182.0177734375 1001 406.65625 1001S813.3125 818.9822265625 813.3125 594.34375zM406.65625 312.8125A281.53125 281.53125 0 1 1 406.65625 875.875A281.53125 281.53125 0 1 1 406.65625 312.8125z" />
    <glyph glyph-name="share-square"
      unicode="&#xE01C;"
      horiz-adv-x="1126.125" d="M688.1875 563.0625H597.2763671875C509.2978515625 563.0625 437.9375 491.7021484375 437.9375 403.7236328125C437.9375 360.125390625 458.0748046875 336.664453125 475.475 324.54296875C488.76953125 315.3541015625 500.5 301.08203125 500.5 284.8548828125C500.5 265.6951171875 484.859375 250.0544921875 465.699609375 250.0544921875H460.8119140625C456.1197265625 250.0544921875 451.4275390624999 250.8365234374999 446.930859375 252.7916015624999C412.1304687500001 268.23671875 250.25 349.1769531250001 250.25 531.78125C250.25 687.2099609375 376.3525390625 813.3125 531.78125 813.3125H688.1875V933.1587890625C688.1875 970.6962890625 718.4912109375 1001 756.0287109375 1001C772.8423828125 1001 788.8740234375 994.74375 801.3865234374999 983.5998046875L1071.5783203125 740.3880859374999C1086.4369140625001 727.0935546874999 1094.84375 708.1292968749999 1094.84375 688.1875S1086.4369140625001 649.2814453125 1071.5783203125 635.9869140625001L799.8224609375001 391.4066406250002C788.2875000000001 381.0447265625001 773.4289062500001 375.3750000000001 757.9837890625001 375.3750000000001H750.75C716.1451171875 375.3750000000001 688.1875 403.3326171875001 688.1875 437.9375000000001V563.0625zM156.40625 813.3125C139.2015625 813.3125 125.125 799.2359375 125.125 782.03125V156.40625C125.125 139.2015625 139.2015625 125.125 156.40625 125.125H782.03125C799.2359375 125.125 813.3125 139.2015625 813.3125 156.40625V250.25C813.3125 284.8548828125 841.2701171875 312.8125 875.875 312.8125S938.4375 284.8548828125 938.4375 250.25V156.40625C938.4375 69.991796875 868.445703125 0 782.03125 0H156.40625C69.991796875 0 0 69.991796875 0 156.40625V782.03125C0 868.445703125 69.991796875 938.4375 156.40625 938.4375H250.25C284.8548828125 938.4375 312.8125 910.4798828125 312.8125 875.875S284.8548828125 813.3125 250.25 813.3125H156.40625z" />
    <glyph glyph-name="test"
      unicode="&#xE01D;"
      horiz-adv-x="1126.125" d="M688.1875 563.0625L597.2763671875 563.0625C509.2978515625 563.0625 437.9375 491.7021484375 437.9375 403.7236328125C437.9375 360.125390625 458.0748046875 336.664453125 475.475 324.54296875C488.76953125 315.3541015625 500.5 301.08203125 500.5 284.8548828125C500.5 265.6951171875 484.859375 250.0544921875 465.699609375 250.0544921875L460.8119140625 250.0544921875C456.1197265625 250.0544921875 451.4275390624999 250.8365234374999 446.930859375 252.7916015624999C412.1304687500001 268.23671875 250.25 349.1769531250001 250.25 531.78125C250.25 687.2099609375 376.3525390625 813.3125 531.78125 813.3125L688.1875 813.3125L688.1875 933.1587890625C688.1875 970.6962890625 718.4912109375 1001 756.0287109375 1001C772.8423828125 1001 788.8740234375 994.74375 801.3865234374999 983.5998046875L1071.5783203125 740.3880859374999C1086.4369140625001 727.0935546874999 1094.84375 708.1292968749999 1094.84375 688.1875S1086.4369140625001 649.2814453125 1071.5783203125 635.9869140625001L799.8224609375001 391.4066406250002C788.2875000000001 381.0447265625001 773.4289062500001 375.3750000000001 757.9837890625001 375.3750000000001L750.7500000000001 375.3750000000001C716.1451171875001 375.3750000000001 688.1875000000001 403.3326171875001 688.1875000000001 437.9375000000001L688.1875000000001 563.0625000000001zM156.40625 813.3125C139.2015625 813.3125 125.125 799.2359375 125.125 782.03125L125.125 156.40625C125.125 139.2015625 139.2015625 125.125 156.40625 125.125L782.03125 125.125C799.2359375 125.125 813.3125 139.2015625 813.3125 156.40625L813.3125 250.25C813.3125 284.8548828125 841.2701171875 312.8125 875.875 312.8125S938.4375 284.8548828125 938.4375 250.25L938.4375 156.40625C938.4375 69.991796875 868.445703125 0 782.03125 0L156.40625 0C69.991796875 0 0 69.991796875 0 156.40625L0 782.03125C0 868.445703125 69.991796875 938.4375 156.40625 938.4375L250.25 938.4375C284.8548828125 938.4375 312.8125 910.4798828125 312.8125 875.875S284.8548828125 813.3125 250.25 813.3125L156.40625 813.3125z" />
    <glyph glyph-name="triangle-exclamation"
      unicode="&#xE01E;"
      horiz-adv-x="1001" d="M500.5 938.4375C528.262109375 938.4375 553.8736328125 923.7744140625 567.9501953125 899.726953125L990.2470703125 180.258203125C1004.5191406249997 156.015234375 1004.5191406249997 126.1025390625 990.6380859375 101.8595703125S950.7544921875 62.5625 922.796875 62.5625H78.203125C50.2455078125 62.5625 24.24296875 77.6166015625 10.3619140625 101.8595703125001S-3.3236328125 156.2107421875001 10.7529296875 180.2582031250001L433.0498046875 899.7269531250001C447.1263671875 923.7744140625 472.737890625 938.4375 500.5 938.4375zM500.5 688.1875C474.4974609375 688.1875 453.578125 667.2681640625001 453.578125 641.265625V422.296875C453.578125 396.2943359375 474.4974609375 375.375 500.5 375.375S547.421875 396.2943359375 547.421875 422.296875V641.265625C547.421875 667.2681640625001 526.5025390625 688.1875 500.5 688.1875zM563.0625 250.25A62.5625 62.5625 0 1 1 437.9375 250.25A62.5625 62.5625 0 1 1 563.0625 250.25z" />
    <glyph glyph-name="twitter"
      unicode="&#xE01F;"
      horiz-adv-x="1001" d="M760.91640625 907.15625H898.9449218749999L597.4718750000001 562.6714843750001L952.123046875 93.84375H674.501953125L456.9017578125 378.112109375L208.2158203125 93.84375H69.991796875L392.3841796875 462.3759765625L52.39609375 907.15625H337.05546875L533.5408203124999 647.3263671875L760.91640625 907.15625zM712.4304687499999 176.348046875H788.8740234375L295.4123046875 828.953125H213.2990234375L712.4304687499999 176.348046875z" />
    <glyph glyph-name="xmark"
      unicode="&#xE020;"
      horiz-adv-x="750.75" d="M669.8097656250001 706.565234375C694.2482421875001 731.0037109375 694.2482421875001 770.691796875 669.8097656250001 795.1302734375S605.683203125 819.56875 581.2447265625 795.1302734375L375.375 589.0650390625001L169.309765625 794.934765625C144.8712890625 819.3732421875 105.183203125 819.3732421875 80.7447265625 794.934765625S56.30625 730.8082031250001 80.7447265625 706.3697265625001L286.8099609375 500.5L80.940234375 294.4347656250001C56.5017578125 269.9962890625001 56.5017578125 230.308203125 80.940234375 205.8697265625S145.066796875 181.43125 169.5052734375 205.8697265625L375.375 411.9349609375L581.4402343749999 206.0652343749999C605.8787109374999 181.6267578124999 645.566796875 181.6267578124999 670.0052734375 206.0652343749999S694.44375 270.191796875 670.0052734375 294.6302734375L463.9400390625 500.5L669.8097656250001 706.565234375z" />
    <glyph glyph-name="youtube"
      unicode="&#xE021;"
      horiz-adv-x="1126.125" d="M1074.7064453125001 758.3748046875C1062.3894531250003 804.71015625 1026.2205078125003 841.074609375 980.276171875 853.3916015625C896.98984375 875.875 563.0625 875.875 563.0625 875.875S229.13515625 875.875 145.848828125 853.3916015625C99.9044921875 841.074609375 63.735546875 804.71015625 51.4185546875 758.3748046875C29.1306640625 674.501953125 29.1306640625 499.7179687500001 29.1306640625 499.7179687500001S29.1306640625 324.9339843750002 51.4185546875 241.0611328125C63.735546875 194.7257812500001 99.9044921875 159.925390625 145.848828125 147.6083984375C229.13515625 125.125 563.0625 125.125 563.0625 125.125S896.98984375 125.125 980.276171875 147.6083984375C1026.2205078125 159.925390625 1062.389453125 194.9212890625 1074.7064453125 241.0611328125C1096.9943359374997 324.933984375 1096.9943359374997 499.7179687500001 1096.9943359374997 499.7179687500001S1096.9943359374997 674.501953125 1074.7064453125 758.3748046875zM453.9691406250001 340.965625V658.4703125000001L732.9587890625 499.7179687500001L453.9691406250001 340.9656250000001z" />
  </font>
</defs>
</svg>
